PathFileType	4	(X/Y/Z)	/Users/itak/Documents/Research/Walk-IL/dataset/trc/00322_00011.trc
DataRate	CameraRate	NumFrames	NumMarkers	Units	OrigDataRate	OrigDataStartFrame	OrigNumFrames
100.000000	100.000000	4	57	mm	100.000000	268	537
Frame#	Time	LPSI			L3			STRN			T10			C7			CLAV			RBAK			LBAK			LSHO			LUPA			LAEL			LAOL			LWTS			LWPS			LFRA			LHPS			RSHO			RUPA			RAEL			RAOL			RWTS			RWPS			RFRA			RIFD			RHTS			RHPS			RBHD			LFHD			RFHD			LBHD			LHIP			RASI			LASI			LKNE			LTHI			LANK			LTIP			LTOE			LMT1			LMT5			LHEE			RKNE			RANK			RTIP			RTOE			RMT1			RMT5			RHEE			RPSI			RTHI			RHIP			LHTS			LIFD			*53			*54			*55			*56			
		X1	Y1	Z1	X2	Y2	Z2	X3	Y3	Z3	X4	Y4	Z4	X5	Y5	Z5	X6	Y6	Z6	X7	Y7	Z7	X8	Y8	Z8	X9	Y9	Z9	X10	Y10	Z10	X11	Y11	Z11	X12	Y12	Z12	X13	Y13	Z13	X14	Y14	Z14	X15	Y15	Z15	X16	Y16	Z16	X17	Y17	Z17	X18	Y18	Z18	X19	Y19	Z19	X20	Y20	Z20	X21	Y21	Z21	X22	Y22	Z22	X23	Y23	Z23	X24	Y24	Z24	X25	Y25	Z25	X26	Y26	Z26	X27	Y27	Z27	X28	Y28	Z28	X29	Y29	Z29	X30	Y30	Z30	X31	Y31	Z31	X32	Y32	Z32	X33	Y33	Z33	X34	Y34	Z34	X35	Y35	Z35	X36	Y36	Z36	X37	Y37	Z37	X38	Y38	Z38	X39	Y39	Z39	X40	Y40	Z40	X41	Y41	Z41	X42	Y42	Z42	X43	Y43	Z43	X44	Y44	Z44	X45	Y45	Z45	X46	Y46	Z46	X47	Y47	Z47	X48	Y48	Z48	X49	Y49	Z49	X50	Y50	Z50	X51	Y51	Z51	X52	Y52	Z52	X53	Y53	Z53	X54	Y54	Z54	X55	Y55	Z55	X56	Y56	Z56	X57	Y57	Z57	

269	2.68	-483.0360412597656	941.5258178710938	6.062347888946533	-485.1809692382812	1000.866760253906	62.17417907714844	-252.7061767578125	1182.174194335938	53.78953170776367	-503.2047729492188	1121.23583984375	41.28498458862305	-450.7481689453125	1366.998168945312	24.39355087280273	-295.7521667480469	1307.065551757812	46.44930648803711	-505.1427307128906	1231.162963867188	88.64729309082031	-452.2124633789062	1327.814819335938	-78.95606231689453	-360.7973022460938	1344.442016601562	-122.1602020263672	-351.5061950683594	1227.639038085938	-193.1220550537109	-267.7927551269531	1040.768676757812	-217.7335205078125	-325.8316955566406	1000.671447753906	-173.4284210205078	-73.29869079589844	889.6339721679688	-141.5266418457031	-87.34329986572266	858.035888671875	-201.3868103027344	-204.1484985351562	957.9492797851562	-218.0984954833984	-47.30533599853516	802.4841918945312	-190.6931610107422	-407.8712158203125	1354.688842773438	192.9445495605469	-436.0605163574219	1296.211669921875	253.7504425048828	-510.2036437988281	1039.77880859375	283.8365783691406	-519.75634765625	1035.917846679688	189.2813415527344	-475.1471557617188	785.5285034179688	284.8619079589844	-532.6751098632812	794.744140625	335.2325744628906	-511.6123962402344	972.0914916992188	303.2966003417969	-543.21630859375	623.808349609375	298.5971984863281	-509.5886535644531	678.7424926757812	296.2231750488281	-554.8870849609375	712.6393432617188	337.1731567382812	-419.6797485351562	1562.231323242188	110.3646926879883	-248.9795074462891	1592.7119140625	-6.465473651885986	-260.7630004882812	1593.517822265625	94.08254241943359	-429.5914916992188	1553.143920898438	-34.56182479858398	-411.9411010742188	882.7650756835938	-108.3650970458984	-280.3376159667969	927.3449096679688	173.487060546875	-283.6193542480469	908.0382080078125	-65.53561401367188	-437.108154296875	437.206787109375	-86.06455993652344	-413.4897155761719	571.7881469726562	-98.19972229003906	-762.2789306640625	139.93310546875	-45.82158660888672	-599.2239990234375	274.9340515136719	-77.62717437744141	-615.4686279296875	40.87939453125	10.15201854705811	-662.576904296875	48.19865798950195	52.51984786987305	-673.509765625	56.01355361938477	-63.08846282958984	-782.2009887695312	165.2854614257812	22.69433212280273	-177.5627288818359	463.4841918945312	183.6455688476562	-172.6786346435547	46.83642578125	150.0275573730469	-145.9262237548828	345.2323913574219	170.6161193847656	18.66124534606934	57.89969635009766	91.896484375	-37.97438049316406	43.51940536499023	52.6108283996582	-71.52232360839844	36.98008728027344	162.8478698730469	-224.0685424804688	46.16333770751953	102.6421737670898	-471.8322143554688	938.6694946289062	135.2065734863281	-243.4396362304688	711.49267578125	228.210205078125	-373.9906005859375	895.0107421875	234.6938934326172	-12.86014270782471	838.345947265625	-150.5661315917969	32.42724609375	771.4992065429688	-124.6025924682617	nan	nan	nan	nan	nan	nan	nan	nan	nan	nan	nan	nan	
270	2.69	-469.9570922851562	942.1690673828125	7.273518562316895	-471.28662109375	1001.715270996094	63.93198394775391	-240.5141448974609	1183.78369140625	54.81948852539062	-490.7295227050781	1121.941162109375	43.13023376464844	-439.33154296875	1367.900756835938	25.82699775695801	-283.9848022460938	1308.573120117188	47.44351577758789	-492.7424926757812	1231.864990234375	90.42658996582031	-441.0531311035156	1328.703857421875	-77.34899139404297	-349.7952880859375	1345.373657226562	-120.9959716796875	-341.4063720703125	1228.253051757812	-191.6600189208984	-260.557861328125	1040.1181640625	-215.8486480712891	-320.3595886230469	1001.442687988281	-171.7291259765625	-69.35336303710938	884.7828369140625	-139.2111968994141	-83.77601623535156	853.7625732421875	-199.3053283691406	-198.4348754882812	956.0942993164062	-216.0858154296875	-44.99073791503906	797.2612915039062	-188.5621337890625	-395.8586120605469	1356.041259765625	194.1896362304688	-423.390625	1297.4599609375	255.2636413574219	-495.7777099609375	1040.439697265625	285.3406372070312	-505.9178161621094	1036.7861328125	190.7332916259766	-458.8975524902344	786.4917602539062	285.8254089355469	-516.3046264648438	795.1323852539062	336.4046325683594	-496.6397399902344	972.6840209960938	304.6570434570312	-525.6492309570312	624.0679321289062	299.4130249023438	-492.4679260253906	679.0830688476562	297.1595458984375	-537.88916015625	712.8314819335938	338.177734375	-408.2006225585938	1563.564697265625	111.5297088623047	-237.7322845458984	1593.837036132812	-5.68928861618042	-249.2793884277344	1594.73828125	94.84281921386719	-418.4716186523438	1554.426391601562	-33.37172317504883	-398.5685424804688	883.3701171875	-107.018196105957	-267.4917602539062	928.75732421875	175.1982574462891	-270.5711364746094	909.0165405273438	-63.65557479858398	-417.7950439453125	436.8328247070312	-86.84719085693359	-395.7273559570312	571.3888549804688	-98.15955352783203	-750.1904907226562	149.1763610839844	-46.5655403137207	-583.701904296875	278.978515625	-78.66368865966797	-614.3385009765625	39.8687629699707	10.00599002838135	-658.0031127929688	51.23212051391602	51.9870491027832	-669.1141357421875	57.83955383300781	-63.71835327148438	-767.8223876953125	176.0507202148438	21.88312339782715	-167.1048278808594	463.2804565429688	184.6954650878906	-171.7154541015625	47.50948715209961	149.9793395996094	-137.9768371582031	344.5857849121094	170.7956237792969	20.08860969543457	54.22511291503906	91.29416656494141	-36.99786758422852	41.2567253112793	52.11774444580078	-70.77925109863281	36.11605072021484	162.4822387695312	-223.2097473144531	47.25338363647461	102.4681701660156	-458.8153381347656	940.1116333007812	136.5092468261719	-231.6814270019531	711.97802734375	229.6224517822266	-361.217041015625	896.6272583007812	236.2757873535156	-9.968157768249512	832.1931762695312	-148.2349853515625	33.65507888793945	764.2875366210938	-122.3014602661133	nan	nan	nan	nan	nan	nan	nan	nan	nan	nan	nan	nan	
271	2.7	-457.19482421875	942.8381958007812	8.427016258239746	-457.64697265625	1002.682983398438	65.70641326904297	-228.406494140625	1185.466552734375	55.76456069946289	-478.2239685058594	1122.749633789062	44.96016311645508	-427.9554748535156	1368.914672851562	27.2458438873291	-272.299072265625	1310.13330078125	48.35013198852539	-480.4070129394531	1232.715698242188	92.22956085205078	-429.9803771972656	1329.693359375	-75.75041198730469	-338.9088745117188	1346.402465820312	-119.8778762817383	-331.4365234375	1228.989013671875	-190.2634735107422	-253.5580749511719	1039.586303710938	-213.9109344482422	-315.1693725585938	1002.417846679688	-169.9867095947266	-65.84822845458984	879.7666015625	-137.0358123779297	-80.84944915771484	849.3102416992188	-197.3249053955078	-193.1390228271484	954.243896484375	-214.0752868652344	-43.44566345214844	791.7545166015625	-186.5670013427734	-383.7977600097656	1357.530639648438	195.3969573974609	-410.6446838378906	1298.824951171875	256.76220703125	-481.0264282226562	1041.17333984375	286.9379272460938	-491.8482971191406	1037.710693359375	192.3318023681641	-441.9073486328125	787.600830078125	286.7929992675781	-499.1945495605469	795.5484008789062	337.6438598632812	-481.2284851074219	973.337158203125	306.0939636230469	-507.1183471679688	624.37548828125	300.2792053222656	-474.5172424316406	679.4014282226562	298.0247192382812	-520.0238037109375	713.0304565429688	339.275390625	-396.7547302246094	1564.958618164062	112.644172668457	-226.525146484375	1595.04541015625	-4.956676006317139	-237.8329772949219	1596.022827148438	95.552490234375	-407.3754272460938	1555.790405273438	-32.2315673828125	-385.4566345214844	884.04345703125	-105.6802597045898	-254.9363555908203	930.23291015625	176.9419250488281	-257.7836303710938	910.1351318359375	-61.79848861694336	-397.68505859375	436.4605407714844	-87.90299987792969	-377.4971008300781	570.9807739257812	-98.24006652832031	-736.6361694335938	158.7263946533203	-47.54558181762695	-567.0348510742188	282.927978515625	-79.87139129638672	-612.1937866210938	38.54501342773438	9.744382858276367	-652.5322875976562	54.82840728759766	51.40382766723633	-663.9564819335938	60.34857177734375	-64.32012939453125	-751.989990234375	186.9049377441406	20.84430313110352	-157.3540344238281	462.9271240234375	185.9236297607422	-170.9070892333984	48.1573600769043	149.9769744873047	-130.7743682861328	343.802734375	171.1472930908203	21.13676071166992	51.19414520263672	90.78566741943359	-36.28050231933594	39.53508758544922	51.6536865234375	-70.19989013671875	35.56124877929688	162.2358245849609	-222.5144500732422	48.15578842163086	102.3213424682617	-446.125244140625	941.5363159179688	137.7319946289062	-220.1980590820312	712.663330078125	231.0287475585938	-348.7896423339844	898.2425537109375	237.7702484130859	-7.80321216583252	825.650146484375	-146.0266418457031	33.78287124633789	756.4496459960938	-120.0973052978516	nan	nan	nan	nan	nan	nan	nan	nan	nan	nan	nan	nan	
272	2.71	-444.7948303222656	943.49267578125	9.5074462890625	-444.3340759277344	1003.727783203125	67.47077941894531	-216.4237213134766	1187.186401367188	56.60324859619141	-465.7249450683594	1123.645629882812	46.7456169128418	-416.6381530761719	1370.026733398438	28.6523609161377	-260.7118225097656	1311.713623046875	49.15946960449219	-468.1577758789062	1233.697875976562	94.06703186035156	-419.0253295898438	1330.766357421875	-74.16082000732422	-328.1681823730469	1347.493408203125	-118.8159866333008	-321.6258850097656	1229.806396484375	-188.9346771240234	-246.7749786376953	1039.155639648438	-211.9139404296875	-310.0406188964844	1003.511413574219	-168.135009765625	-62.7388916015625	874.6384887695312	-135.044677734375	-78.54727172851562	844.7067260742188	-195.4591979980469	-188.2502136230469	952.39013671875	-212.0771026611328	-42.65275573730469	786.0068359375	-184.7238311767578	-371.6912841796875	1359.118896484375	196.5758056640625	-397.8304138183594	1300.265625	258.2502136230469	-465.9765625	1041.947998046875	288.6426696777344	-477.5467224121094	1038.638061523438	194.1100769042969	-424.2046203613281	788.804931640625	287.7576599121094	-481.37109375	795.9696044921875	338.9415283203125	-465.4073486328125	974.0159301757812	307.6181640625	-487.6543579101562	624.732421875	301.2170715332031	-455.72802734375	679.7459716796875	298.8905944824219	-501.3135681152344	713.2164916992188	340.4750366210938	-385.3487243652344	1566.397583007812	113.702522277832	-215.3709869384766	1596.326293945312	-4.275224685668945	-226.4333648681641	1597.363159179688	96.21022796630859	-396.3071899414062	1557.213623046875	-31.14964866638184	-372.6424865722656	884.7133178710938	-104.3476943969727	-242.6879577636719	931.7495727539062	178.6962738037109	-245.2796020507812	911.3577270507812	-59.98778533935547	-376.8822326660156	436.1256408691406	-89.09745788574219	-358.8827514648438	570.5702514648438	-98.37834167480469	-721.6738891601562	168.5130920410156	-48.76586532592773	-549.3045043945312	286.7561340332031	-81.20264434814453	-608.7213745117188	36.99193954467773	9.293840408325195	-646.0097045898438	58.99580001831055	50.74603652954102	-657.8071899414062	63.69573593139648	-64.91187286376953	-734.8549194335938	197.7494812011719	19.58603668212891	-148.4685516357422	462.487060546875	187.2562103271484	-170.2286376953125	48.73978424072266	150.0203094482422	-124.2931594848633	342.9241333007812	171.6512298583984	21.85533714294434	48.74917602539062	90.36065673828125	-35.78706741333008	38.26472473144531	51.22013854980469	-69.75910186767578	35.23017501831055	162.0781097412109	-221.9553680419922	48.89993667602539	102.2164154052734	-433.7750854492188	942.9209594726562	138.871826171875	-209.0266876220703	713.4769287109375	232.4057159423828	-336.6934814453125	899.8258666992188	239.1871643066406	-6.356009960174561	818.7586059570312	-143.9602661132812	32.90522003173828	748.14453125	-118.0442123413086	nan	nan	nan	nan	nan	nan	nan	nan	nan	nan	nan	nan	
